<svg width="141" height="98" viewBox="0 0 141 98" fill="none" xmlns="http://www.w3.org/2000/svg">
<g style="mix-blend-mode:hard-light">
<ellipse cx="71" cy="44.5" rx="60" ry="44.5" fill="url(#paint0_radial_404_444)"/>
</g>
<ellipse cx="70.5" cy="73" rx="70.5" ry="6" fill="url(#paint1_radial_404_444)"/>
<path d="M38.3087 29.0555C39.407 28.4007 39.8837 27.04 39.4547 25.8406C39.0328 24.6806 37.8869 23.9502 36.6657 24.0743C36.4456 24.0932 36.2239 24.149 36.0058 24.2244C34.6079 24.7253 33.88 26.273 34.3895 27.6734C34.8271 28.8753 36.0552 29.6113 37.3224 29.4262C37.4997 29.3947 37.6646 29.4994 37.727 29.667C39.2997 34.0025 39.115 36.815 39.6957 45.1384C41.3864 46.8972 42.2597 44.642 43.1341 44.5553C44.219 44.4189 45.9195 45.8447 46.7091 43.4572C42.2597 36.0424 39.745 33.9476 38.1547 29.5136C38.0923 29.346 38.1653 29.1623 38.3123 29.0752L38.3087 29.0555Z" fill="url(#paint2_linear_404_444)"/>
<path d="M105.122 31.296C104.024 30.6412 103.547 29.2805 103.976 28.0811C104.398 26.9211 105.544 26.1907 106.765 26.3148C106.986 26.3337 107.207 26.3894 107.425 26.4649C108.823 26.9658 109.551 28.5135 109.042 29.9138C108.604 31.1158 107.376 31.8518 106.109 31.6667C105.931 31.6351 105.767 31.7398 105.704 31.9075C104.131 36.243 104.316 39.0555 103.735 47.3789C102.045 49.1377 101.171 46.8825 100.297 46.7958C99.2121 46.6594 97.5116 48.0852 96.7221 45.6976C101.171 38.2829 103.686 36.188 105.276 31.7541C105.339 31.5864 105.266 31.4028 105.119 31.3157L105.122 31.296Z" fill="url(#paint3_linear_404_444)"/>
<path d="M80.9203 24.5169C79.6789 24.2107 78.8262 23.048 78.8869 21.7756C78.9524 20.543 79.8356 19.5103 81.04 19.2731C81.256 19.227 81.4843 19.2157 81.715 19.2242C83.1981 19.2959 84.3455 20.5642 84.2664 22.0523C84.1982 23.3296 83.2379 24.3917 81.9718 24.584C81.7931 24.6054 81.6658 24.7537 81.655 24.9322C81.4144 29.5379 82.4109 32.1744 84.2816 40.3056C83.177 42.4808 81.6842 40.5781 80.8225 40.7501C79.745 40.9359 78.5339 42.7954 77.0827 40.7417C79.1775 32.352 80.9724 29.6151 81.2012 24.9102C81.2119 24.7316 81.0887 24.5772 80.9226 24.5367L80.9203 24.5169Z" fill="url(#paint4_linear_404_444)"/>
<path d="M61.9987 24.5169C63.2401 24.2107 64.0928 23.048 64.032 21.7756C63.9665 20.543 63.0833 19.5103 61.879 19.2731C61.6629 19.227 61.4346 19.2157 61.204 19.2242C59.7208 19.2959 58.5734 20.5642 58.6526 22.0523C58.7208 23.3296 59.681 24.3917 60.9472 24.584C61.1259 24.6054 61.2531 24.7537 61.2639 24.9322C61.5046 29.5379 60.5081 32.1744 58.6373 40.3056C59.7419 42.4808 61.2347 40.5781 62.0964 40.7501C63.174 40.9359 64.385 42.7954 65.8362 40.7417C63.7414 32.352 61.9465 29.6151 61.7178 24.9102C61.707 24.7316 61.8303 24.5772 61.9963 24.5367L61.9987 24.5169Z" fill="url(#paint5_linear_404_444)"/>
<path d="M116.201 27.0951C117.74 27.0951 118.995 28.3424 118.995 29.8884V29.8958C118.995 31.0535 118.285 32.0543 117.277 32.4725L108.636 61.4954H33.9499L25.2789 32.6592C23.8599 32.5248 22.7471 31.3447 22.7471 29.8884C22.7471 28.3424 24.0018 27.0951 25.5478 27.0877C27.0863 27.0877 28.341 28.3349 28.341 29.8809C28.341 30.8518 27.8481 31.7032 27.1012 32.2036C28.4456 36.991 32.3591 46.8794 41.5007 45.3633C50.321 43.9069 49.8729 32.6667 49.3725 28.3872C48.3419 27.9689 47.6174 26.9682 47.6174 25.7956C47.6174 24.2571 48.8647 23.0023 50.4107 23.0023C51.9492 23.0023 53.2039 24.2496 53.2039 25.7956C53.2039 26.8337 52.6288 27.7225 51.7923 28.2079C52.4197 31.7555 54.7051 40.4863 62.0243 40.0755C71.1061 39.5676 71.0837 24.2421 70.5683 17.035C68.507 16.7063 66.9311 14.9363 66.9311 12.7853C66.9311 10.4029 68.8655 8.46851 71.248 8.46851C72.4654 8.46851 73.5558 8.9689 74.34 9.76804C74.3549 9.78297 74.3624 9.79791 74.3773 9.81285C74.5491 9.99209 74.7059 10.1863 74.8478 10.3954C74.8926 10.4551 74.9225 10.5298 74.9599 10.597C75.0569 10.7688 75.1615 10.9406 75.2362 11.1198C75.2959 11.2618 75.3258 11.4037 75.3706 11.5456C75.4154 11.6725 75.4603 11.792 75.4901 11.9265C75.5499 12.2028 75.5797 12.4941 75.5797 12.7928C75.5797 13.0916 75.5499 13.3754 75.4901 13.6517C75.4603 13.7861 75.408 13.9131 75.3706 14.0401C75.3333 14.182 75.2959 14.3239 75.2437 14.4583C75.169 14.645 75.0644 14.8093 74.9673 14.9811C74.9225 15.0483 74.9001 15.1155 74.8553 15.1828C74.7134 15.3844 74.5566 15.5786 74.3848 15.7578C74.3698 15.7728 74.3549 15.7952 74.34 15.8101C73.7724 16.3927 73.033 16.8109 72.2114 16.9976C72.204 19.8581 72.3608 24.0031 73.0927 28.0436C73.2496 28.8801 73.4213 29.7166 73.6304 30.5381C73.8396 31.3597 74.0711 32.1588 74.34 32.9281C74.6088 33.6973 74.9001 34.4367 75.2437 35.1313C75.5872 35.8259 75.9606 36.4757 76.3714 37.0731C76.9988 37.9694 77.7083 38.7312 78.5224 39.3286C78.7987 39.5303 79.075 39.7095 79.3738 39.8664C80.2625 40.3444 81.2559 40.6356 82.3687 40.6954L82.3762 40.6956C82.6573 40.703 82.9312 40.7102 83.1977 40.6954C84.542 40.6356 85.6474 40.2323 86.566 39.5975C86.7527 39.4705 86.9245 39.3286 87.0963 39.1867C89.1128 37.454 90.0837 34.5114 90.5393 31.9273C90.8007 30.4336 90.8978 29.0594 90.9277 28.1034C90.1883 27.603 89.7028 26.759 89.7028 25.7956C89.7028 24.2571 90.9501 23.0023 92.4961 23.0023C94.0346 23.0023 95.2893 24.2496 95.2893 25.7956C95.2893 27.1175 94.3781 28.2154 93.1458 28.5067C93.0786 29.1789 93.0039 30.0004 92.9666 30.9265C92.9442 31.4194 92.9367 31.9348 92.9367 32.4725C92.9442 34.0857 93.0562 35.8782 93.4072 37.6333C93.9823 40.5535 95.2072 43.3617 97.5971 45.0122C97.8361 45.184 98.09 45.3334 98.3514 45.4753C99.1356 45.901 100.039 46.2072 101.063 46.379C103.191 46.7375 105.036 46.4238 106.634 45.6919C107 45.5201 107.359 45.3408 107.695 45.1317C108.001 44.9375 108.292 44.7284 108.583 44.5044C109.509 43.7949 110.331 42.9285 111.055 41.98C111.436 41.4796 111.787 40.9643 112.116 40.4265C112.445 39.8888 112.751 39.3436 113.027 38.7909C113.169 38.5146 113.303 38.2382 113.43 37.9619C113.819 37.1329 114.147 36.3039 114.439 35.5122C114.835 34.4293 115.141 33.421 115.372 32.5472C114.237 32.1887 113.408 31.1431 113.408 29.8884C113.408 28.3498 114.655 27.0951 116.201 27.0951Z" fill="url(#paint6_linear_404_444)"/>
<path d="M116.201 27.0951C117.74 27.0951 118.995 28.3424 118.995 29.8884V29.8958C118.995 31.0535 118.285 32.0543 117.277 32.4725L108.636 61.4954H33.9499L25.2789 32.6592C23.8599 32.5248 22.7471 31.3447 22.7471 29.8884C22.7471 28.3424 24.0018 27.0951 25.5478 27.0877C27.0863 27.0877 28.341 28.3349 28.341 29.8809C28.341 30.8518 27.8481 31.7032 27.1012 32.2036C28.4456 36.991 32.3591 46.8794 41.5007 45.3633C50.321 43.9069 49.8729 32.6667 49.3725 28.3872C48.3419 27.9689 47.6174 26.9682 47.6174 25.7956C47.6174 24.2571 48.8647 23.0023 50.4107 23.0023C51.9492 23.0023 53.2039 24.2496 53.2039 25.7956C53.2039 26.8337 52.6288 27.7225 51.7923 28.2079C52.4197 31.7555 54.7051 40.4863 62.0243 40.0755C71.1061 39.5676 71.0837 24.2421 70.5683 17.035C68.507 16.7063 66.9311 14.9363 66.9311 12.7853C66.9311 10.4029 68.8655 8.46851 71.248 8.46851C72.4654 8.46851 73.5558 8.9689 74.34 9.76804C74.3549 9.78297 74.3624 9.79791 74.3773 9.81285C74.5491 9.99209 74.7059 10.1863 74.8478 10.3954C74.8926 10.4551 74.9225 10.5298 74.9599 10.597C75.0569 10.7688 75.1615 10.9406 75.2362 11.1198C75.2959 11.2618 75.3258 11.4037 75.3706 11.5456C75.4154 11.6725 75.4603 11.792 75.4901 11.9265C75.5499 12.2028 75.5797 12.4941 75.5797 12.7928C75.5797 13.0916 75.5499 13.3754 75.4901 13.6517C75.4603 13.7861 75.408 13.9131 75.3706 14.0401C75.3333 14.182 75.2959 14.3239 75.2437 14.4583C75.169 14.645 75.0644 14.8093 74.9673 14.9811C74.9225 15.0483 74.9001 15.1155 74.8553 15.1828C74.7134 15.3844 74.5566 15.5786 74.3848 15.7578C74.3698 15.7728 74.3549 15.7952 74.34 15.8101C73.7724 16.3927 73.033 16.8109 72.2114 16.9976C72.204 19.8581 72.3608 24.0031 73.0927 28.0436C73.2496 28.8801 73.4213 29.7166 73.6304 30.5381C73.8396 31.3597 74.0711 32.1588 74.34 32.9281C74.6088 33.6973 74.9001 34.4367 75.2437 35.1313C75.5872 35.8259 75.9606 36.4757 76.3714 37.0731C76.9988 37.9694 77.7083 38.7312 78.5224 39.3286C78.7987 39.5303 79.075 39.7095 79.3738 39.8664C80.2625 40.3444 81.2559 40.6356 82.3687 40.6954L82.3762 40.6956C82.6573 40.703 82.9312 40.7102 83.1977 40.6954C84.542 40.6356 85.6474 40.2323 86.566 39.5975C86.7527 39.4705 86.9245 39.3286 87.0963 39.1867C89.1128 37.454 90.0837 34.5114 90.5393 31.9273C90.8007 30.4336 90.8978 29.0594 90.9277 28.1034C90.1883 27.603 89.7028 26.759 89.7028 25.7956C89.7028 24.2571 90.9501 23.0023 92.4961 23.0023C94.0346 23.0023 95.2893 24.2496 95.2893 25.7956C95.2893 27.1175 94.3781 28.2154 93.1458 28.5067C93.0786 29.1789 93.0039 30.0004 92.9666 30.9265C92.9442 31.4194 92.9367 31.9348 92.9367 32.4725C92.9442 34.0857 93.0562 35.8782 93.4072 37.6333C93.9823 40.5535 95.2072 43.3617 97.5971 45.0122C97.8361 45.184 98.09 45.3334 98.3514 45.4753C99.1356 45.901 100.039 46.2072 101.063 46.379C103.191 46.7375 105.036 46.4238 106.634 45.6919C107 45.5201 107.359 45.3408 107.695 45.1317C108.001 44.9375 108.292 44.7284 108.583 44.5044C109.509 43.7949 110.331 42.9285 111.055 41.98C111.436 41.4796 111.787 40.9643 112.116 40.4265C112.445 39.8888 112.751 39.3436 113.027 38.7909C113.169 38.5146 113.303 38.2382 113.43 37.9619C113.819 37.1329 114.147 36.3039 114.439 35.5122C114.835 34.4293 115.141 33.421 115.372 32.5472C114.237 32.1887 113.408 31.1431 113.408 29.8884C113.408 28.3498 114.655 27.0951 116.201 27.0951Z" fill="url(#paint7_linear_404_444)"/>
<g style="mix-blend-mode:soft-light">
<path d="M63.0774 61.4955H33.8984L25.2808 33.0193C23.8607 32.8854 22.7471 31.7107 22.7471 30.2609C22.7471 28.7218 24.0027 27.4802 25.5499 27.4727C27.0895 27.4727 28.3452 28.7144 28.3452 30.2534C28.3452 31.22 27.8519 32.0676 27.1045 32.5657C28.4498 37.3316 32.3662 47.1756 41.5146 45.6663C50.3415 44.2164 49.893 33.0267 49.3923 28.7664C48.3608 28.3501 47.6359 27.3538 47.6359 26.1865C47.6359 24.6548 48.884 23.4058 50.4312 23.4058C51.9783 23.4058 53.2265 24.6474 53.2265 26.1865C53.2265 27.2199 52.651 28.1047 51.8139 28.588C52.4417 32.1196 54.7288 40.8112 62.0534 40.4023" fill="url(#paint8_linear_404_444)"/>
</g>
<rect x="33.9463" y="61.4922" width="74.692" height="9.71543" fill="url(#paint9_linear_404_444)" stroke="url(#paint10_linear_404_444)" stroke-width="1.5"/>
<g style="mix-blend-mode:soft-light">
<rect x="33.9497" y="62.2422" width="29.1274" height="8.21543" fill="url(#paint11_linear_404_444)"/>
</g>
<path d="M109.181 61.9958H33.3373L24.6962 33.3015C23.1278 32.9206 22 31.5315 22 29.8735C22 27.9242 23.5908 26.3334 25.5476 26.3259C27.5043 26.3259 29.0951 27.9167 29.0951 29.866C29.0951 30.8593 28.6769 31.7929 27.9674 32.4576C29.5433 37.7902 33.3074 45.9458 41.3884 44.609C49.2454 43.3094 49.1707 33.4733 48.6852 28.8652C47.5724 28.2378 46.8778 27.0728 46.8778 25.7807C46.8778 23.8314 48.4686 22.2406 50.4179 22.2406C52.3672 22.2406 53.958 23.8314 53.958 25.7807C53.958 26.8711 53.4651 27.8644 52.6211 28.5366C53.3456 32.2485 55.6086 39.6573 61.9867 39.3212C63.7568 39.2241 65.1908 38.5146 66.3783 37.1703C70.1798 32.846 70.2246 23.3086 69.8661 17.6399C67.7002 17.0275 66.1915 15.0708 66.1915 12.7854C66.1915 9.99213 68.462 7.72168 71.2552 7.72168C72.6294 7.72168 73.914 8.25942 74.8775 9.24527L74.9447 9.31995C75.1389 9.52907 75.3181 9.74566 75.475 9.97719C75.5123 10.022 75.5571 10.1116 75.6019 10.1938L75.6692 10.3133C75.7663 10.4851 75.8633 10.6568 75.938 10.8361C75.9903 10.9556 76.0276 11.0751 76.0575 11.202L76.0949 11.3215C76.1546 11.4858 76.1994 11.6203 76.2293 11.7696C76.2965 12.1057 76.3339 12.4493 76.3339 12.8003C76.3339 13.1513 76.2965 13.4799 76.2293 13.816C76.2069 13.9355 76.1696 14.0401 76.1322 14.1447L76.0949 14.2567C76.0501 14.421 76.0052 14.5853 75.9455 14.7347C75.8708 14.9214 75.7812 15.0857 75.6841 15.25L75.6244 15.3546L75.5795 15.3799V15.4218C75.5497 15.4815 75.5198 15.5413 75.475 15.6085C75.2957 15.8624 75.1165 16.0865 74.9223 16.2807L74.87 16.3404C74.3323 16.8931 73.6751 17.3113 72.9506 17.5653C72.9655 20.2988 73.1373 24.1451 73.817 27.9167C74.0037 28.9025 74.168 29.6643 74.3472 30.3589C74.5638 31.2253 74.7953 31.9871 75.0418 32.6891C75.3331 33.5331 75.6094 34.2052 75.9082 34.8102C76.2442 35.4898 76.6027 36.1172 76.9836 36.6624C77.5811 37.5138 78.2458 38.2159 78.9628 38.7387C79.2317 38.9403 79.4707 39.0897 79.7171 39.2166C80.5387 39.6573 81.4424 39.9112 82.4058 39.9635C82.6523 39.9635 82.9062 39.9784 83.1527 39.9635C84.2954 39.9112 85.2737 39.5975 86.1401 39.0001C86.3119 38.8806 86.4612 38.7536 86.6181 38.6266C88.545 36.9686 89.4188 34.0036 89.8072 31.8153C90.0312 30.5158 90.1283 29.3357 90.1731 28.4768C89.4113 27.8121 88.9632 26.8412 88.9632 25.8106C88.9632 23.8613 90.554 22.2705 92.5033 22.2705C94.4526 22.2705 96.0434 23.8613 96.0434 25.8106C96.0434 27.2669 95.1621 28.5441 93.8477 29.0818C93.7954 29.6419 93.7431 30.2768 93.7207 30.9713C93.6983 31.4568 93.6908 31.9647 93.6908 32.4875C93.6983 34.3397 93.8551 36.0276 94.1464 37.4989C94.7887 40.7477 96.0957 43.0704 98.0301 44.4073C98.2243 44.5492 98.4334 44.6762 98.7172 44.833C99.4342 45.2214 100.271 45.4977 101.197 45.6546C103.019 45.9608 104.752 45.7517 106.335 45.0272C106.634 44.8853 106.992 44.7135 107.314 44.5119C107.597 44.3326 107.874 44.1384 108.143 43.9293C108.964 43.302 109.748 42.5028 110.473 41.5468C110.839 41.0689 111.167 40.5834 111.488 40.0606C111.817 39.5154 112.116 38.9851 112.37 38.4773C112.512 38.2009 112.639 37.9395 112.766 37.6707C113.102 36.9537 113.415 36.1993 113.751 35.2732C114.028 34.5189 114.274 33.7571 114.491 32.9879C113.378 32.368 112.668 31.2029 112.668 29.9033C112.668 27.954 114.259 26.3632 116.209 26.3632C118.158 26.3632 119.749 27.954 119.749 29.9033C119.749 31.2178 119.039 32.4053 117.904 33.0177L109.188 62.0257L109.181 61.9958ZM34.4426 60.5021H108.075L116.664 31.9049L116.993 31.7705C117.755 31.4568 118.247 30.7099 118.247 29.8809C118.247 28.7457 117.329 27.8271 116.201 27.8271C115.073 27.8271 114.155 28.7457 114.155 29.8735C114.155 30.7622 114.737 31.5464 115.596 31.8228L116.276 32.0394L116.097 32.7265C115.828 33.7347 115.507 34.7579 115.141 35.7587C114.782 36.7221 114.453 37.5213 114.11 38.2681C113.983 38.5519 113.841 38.8358 113.699 39.1196C113.423 39.6648 113.117 40.2174 112.758 40.8075C112.415 41.3751 112.049 41.9053 111.653 42.4207C110.839 43.4812 109.965 44.3774 109.039 45.0869C108.703 45.3409 108.396 45.5649 108.098 45.7516C107.709 45.9981 107.299 46.1923 106.955 46.3566C105.088 47.208 103.071 47.462 100.943 47.1035C99.8524 46.9167 98.8665 46.5881 98.0002 46.1176C97.6566 45.9309 97.4027 45.7741 97.1637 45.6023C94.9082 44.0488 93.3921 41.4049 92.6751 37.7603C92.3614 36.1769 92.1971 34.4368 92.1896 32.4576C92.1896 31.9049 92.1896 31.3746 92.2195 30.8743C92.2569 29.9407 92.3315 29.1042 92.3988 28.4171L92.451 27.8868L92.9664 27.7673C93.8925 27.5507 94.5348 26.7292 94.5348 25.7807C94.5348 24.6529 93.6161 23.7343 92.4884 23.7343C91.3606 23.7343 90.442 24.6529 90.442 25.7807C90.442 26.4603 90.7781 27.0877 91.3382 27.4686L91.6818 27.7001L91.6668 28.1109C91.637 29.0295 91.5473 30.456 91.2635 32.0394C90.6362 35.5795 89.3964 38.171 87.5741 39.7394C87.3724 39.9038 87.1857 40.0606 86.9766 40.2025C85.8936 40.9494 84.624 41.3676 83.2199 41.4273C82.9436 41.4423 82.6523 41.4348 82.3535 41.4273C81.1362 41.3601 80.0233 41.0539 79.0076 40.5087C78.7089 40.3519 78.3952 40.1577 78.0666 39.9187C77.2152 39.2988 76.4384 38.4773 75.7438 37.4914C75.3256 36.879 74.9298 36.1993 74.5563 35.4525C74.2277 34.7953 73.929 34.0633 73.6153 33.1671C73.3539 32.4277 73.1149 31.6211 72.8909 30.7174C72.7041 29.9855 72.5324 29.2013 72.3456 28.1781C71.5913 24.0256 71.4419 19.8058 71.4494 16.9902V16.3927L72.032 16.2583C72.7041 16.1014 73.3166 15.7653 73.7945 15.2799L73.8468 15.2201C73.9738 15.0857 74.1082 14.9214 74.2352 14.7421C74.2651 14.6749 74.2949 14.6152 74.3398 14.5554L74.3771 14.4882C74.4368 14.3836 74.4966 14.2866 74.5414 14.1745C74.5787 14.0849 74.6012 13.9729 74.631 13.8608C74.6609 13.7638 74.6758 13.704 74.6982 13.6443C74.7132 13.592 74.7356 13.5322 74.7505 13.4799C74.7953 13.2559 74.8252 13.0244 74.8252 12.7854C74.8252 12.5464 74.8028 12.2999 74.7505 12.0759C74.7356 11.9937 74.7057 11.919 74.6758 11.8443L74.6012 11.5979C74.5862 11.5307 74.5638 11.4709 74.5414 11.4037C74.4891 11.2767 74.4219 11.1647 74.3547 11.0452L74.2501 10.851C74.1082 10.6344 73.9738 10.4701 73.8319 10.3207L73.7796 10.261C73.1 9.58135 72.2037 9.20793 71.2478 9.20793C69.2761 9.20793 67.6778 10.8062 67.6778 12.7779C67.6778 14.533 68.94 16.0118 70.6876 16.2881L71.2702 16.3778L71.315 16.9678C71.7332 22.7858 71.7855 33.2717 67.4985 38.1486C66.0496 39.7917 64.2273 40.688 62.0689 40.8075C54.2045 41.2705 51.7473 32.2261 51.0602 28.3275L50.9706 27.8121L51.4187 27.5507C52.0685 27.1698 52.4568 26.5126 52.4568 25.7807C52.4568 24.6529 51.5382 23.7343 50.4104 23.7343C49.2827 23.7343 48.3641 24.6529 48.3641 25.7807C48.3641 26.6172 48.8719 27.364 49.6561 27.6777L50.0669 27.842L50.1192 28.2827C50.6868 33.1223 50.993 44.5343 41.6274 46.0803C40.9403 46.1923 40.2831 46.2446 39.6482 46.2446C31.2386 46.2446 27.6014 36.7147 26.3841 32.3829L26.2347 31.8601L26.6828 31.5614C27.2504 31.1805 27.594 30.5456 27.594 29.8585C27.594 28.7308 26.6753 27.8121 25.5476 27.8121C24.4198 27.8121 23.4937 28.7382 23.4937 29.866C23.4937 30.9191 24.2929 31.7929 25.3459 31.89L25.8463 31.9348L34.4426 60.4871V60.5021Z" fill="url(#paint12_linear_404_444)"/>
<g style="mix-blend-mode:soft-light">
<path d="M33.2737 62.2346H60.1807L60.1882 62.2422L60.0768 60.7044H34.3729L25.8248 31.7445L25.3272 31.699C24.28 31.6005 23.4853 30.7142 23.4853 29.6461C23.4853 28.5023 24.4063 27.563 25.5277 27.563C26.6491 27.563 27.5626 28.4947 27.5626 29.6386C27.5626 30.3355 27.221 30.9794 26.6565 31.3657L26.2109 31.6687L26.3595 32.199C27.57 36.5926 31.1868 46.2585 39.5493 46.2585C40.1806 46.2585 40.8341 46.2055 41.5174 46.0919C50.8305 44.5238 50.526 32.9489 49.9616 28.0402L49.9096 27.5933L49.5011 27.4266C48.7213 27.1084 48.2163 26.3509 48.2163 25.5025C48.2163 24.3586 49.1298 23.4269 50.2512 23.4269C51.3726 23.4269 52.2861 24.3586 52.2861 25.5025C52.2861 26.2449 51.8999 26.9115 51.2538 27.2978L50.8082 27.563L50.8973 28.0856C51.5806 32.0399 54.024 41.2134 61.8443 40.7438V40.7286L61.7626 39.2363C55.4202 39.5772 53.1699 32.0626 52.4495 28.2977C53.2887 27.616 53.7789 26.6085 53.7789 25.5025C53.7789 23.5254 52.197 21.9119 50.2586 21.9119C48.3203 21.9119 46.7384 23.5254 46.7384 25.5025C46.7384 26.813 47.4291 27.9947 48.5356 28.6311C49.0184 33.3049 49.0926 43.2815 41.2797 44.5995C33.244 45.9555 29.501 37.6834 27.9339 32.2747C28.6395 31.6005 29.0554 30.6536 29.0554 29.6461C29.0554 27.669 27.4735 26.0555 25.5277 26.0555C23.5819 26.0631 22 27.6766 22 29.6537C22 31.3354 23.1214 32.7444 24.681 33.1307L33.2737 62.2346Z" fill="url(#paint13_linear_404_444)"/>
</g>
<g style="mix-blend-mode:soft-light">
<ellipse cx="86.4739" cy="59.9224" rx="35.8491" ry="13.07" transform="rotate(-75 86.4739 59.9224)" fill="url(#paint14_radial_404_444)"/>
</g>
<rect width="76.1794" height="2.24057" rx="1.12029" transform="matrix(-1 0 0 1 109.382 60.7485)" fill="url(#paint15_linear_404_444)"/>
<rect x="33.2026" y="71.2046" width="76.1794" height="2.24057" rx="1.12029" fill="url(#paint16_linear_404_444)"/>
<path fill-rule="evenodd" clip-rule="evenodd" d="M34.3232 60.0017H108.262C109.293 60.0017 110.129 60.8377 110.129 61.8689C110.129 62.9 109.293 63.736 108.262 63.736H34.3232C33.292 63.736 32.4561 62.9 32.4561 61.8689C32.4561 60.8377 33.292 60.0017 34.3232 60.0017ZM34.3232 60.7486C33.7045 60.7486 33.2029 61.2501 33.2029 61.8689C33.2029 62.4876 33.7045 62.9891 34.3232 62.9891H108.262C108.881 62.9891 109.382 62.4876 109.382 61.8689C109.382 61.2501 108.881 60.7486 108.262 60.7486H34.3232Z" fill="url(#paint17_linear_404_444)"/>
<path fill-rule="evenodd" clip-rule="evenodd" d="M108.262 70.4578H34.3229C33.2917 70.4578 32.4558 71.2937 32.4558 72.3249C32.4558 73.3561 33.2917 74.192 34.3229 74.192H108.262C109.293 74.192 110.129 73.3561 110.129 72.3249C110.129 71.2937 109.293 70.4578 108.262 70.4578ZM108.262 71.2046C108.88 71.2046 109.382 71.7062 109.382 72.3249C109.382 72.9436 108.88 73.4452 108.262 73.4452H34.3229C33.7042 73.4452 33.2026 72.9436 33.2026 72.3249C33.2026 71.7062 33.7042 71.2046 34.3229 71.2046H108.262Z" fill="url(#paint18_linear_404_444)"/>
<path style="mix-blend-mode:color-dodge" opacity="0.8" d="M94.0717 62.8144C91.0798 62.7907 65.2273 60.6502 61.5834 60.375C51.0592 59.6033 37.2698 61.5777 33.9467 60.001C33.9497 60.3476 30.7865 65.3977 33.946 62.8139C46.6463 64.8561 94.0717 62.8144 94.0717 62.8144Z" fill="url(#paint19_linear_404_444)"/>
<path style="mix-blend-mode:color-dodge" opacity="0.8" d="M119.485 72.8552C116.493 72.8315 90.6403 70.691 86.9965 70.4157C76.4723 69.6441 62.6828 71.6185 59.3598 70.0418C59.3628 70.3883 56.1995 75.4384 59.359 72.8547C72.0594 74.8969 119.485 72.8552 119.485 72.8552Z" fill="url(#paint20_linear_404_444)"/>
<path style="mix-blend-mode:screen" d="M69.5906 14.9541C70.1643 14.3491 70.9257 14.9436 70.957 15.6112C71.3951 15.6321 71.8332 15.5591 72.2504 15.3922C73.8568 14.7455 74.6391 12.9096 73.9819 11.3033C73.3352 9.69695 71.4994 8.91464 69.8931 9.57178C68.2867 10.2185 67.5044 12.0543 68.1615 13.6607C68.3702 14.1926 68.7352 14.6516 69.1942 14.9958C69.2776 15.0584 69.3298 15.1418 69.3507 15.2461C69.4237 15.1523 69.5071 15.0584 69.5906 14.9645L69.5906 14.9541Z" fill="url(#paint21_linear_404_444)"/>
<path d="M72.3869 15.6646C70.6762 16.3531 68.7256 15.529 68.0268 13.8184C67.3383 12.1077 68.1624 10.1572 69.873 9.4583C71.5837 8.76987 73.5342 9.5939 74.2331 11.3046C74.9215 13.0152 74.0975 14.9658 72.3869 15.6646Z" fill="url(#paint22_radial_404_444)"/>
<path style="mix-blend-mode:color-dodge" opacity="0.4" d="M72.3869 15.6646C70.6762 16.3531 68.7256 15.529 68.0268 13.8184C67.3383 12.1077 68.1624 10.1572 69.873 9.4583C71.5837 8.76987 73.5342 9.5939 74.2331 11.3046C74.9215 13.0152 74.0975 14.9658 72.3869 15.6646Z" fill="url(#paint23_radial_404_444)"/>
<path style="mix-blend-mode:screen" opacity="0.5" d="M74.8164 11.513C74.7433 11.3356 74.6599 11.1792 74.5556 11.0227C74.8164 12.9211 72.991 15.1012 70.498 14.9343C69.0481 14.8404 68.0468 14.0372 67.5982 12.9733C67.5669 13.4322 67.6295 13.8912 67.8068 14.3397C68.5057 16.0608 70.6336 16.8222 72.5633 16.0399C74.493 15.2576 75.5048 13.234 74.8059 11.513L74.8164 11.513Z" fill="url(#paint24_linear_404_444)"/>
<path d="M92.9769 27.4579C91.9021 27.8904 90.6765 27.3727 90.2375 26.2979C89.8049 25.2231 90.3227 23.9975 91.3975 23.5584C92.4723 23.1259 93.6978 23.6436 94.1369 24.7184C94.5694 25.7932 94.0517 27.0188 92.9769 27.4579Z" fill="url(#paint25_radial_404_444)"/>
<path style="mix-blend-mode:color-dodge" opacity="0.4" d="M92.9769 27.4579C91.9021 27.8904 90.6765 27.3727 90.2375 26.2979C89.8049 25.2231 90.3227 23.9975 91.3975 23.5584C92.4723 23.1259 93.6978 23.6436 94.1369 24.7184C94.5694 25.7932 94.0517 27.0188 92.9769 27.4579Z" fill="url(#paint26_radial_404_444)"/>
<path style="mix-blend-mode:screen" opacity="0.5" d="M94.5042 24.8493C94.4583 24.7379 94.4058 24.6396 94.3403 24.5413C94.5042 25.734 93.3573 27.1037 91.7909 26.9989C90.88 26.9399 90.2508 26.4353 89.969 25.7668C89.9493 26.0552 89.9887 26.3435 90.1001 26.6253C90.5392 27.7067 91.8761 28.1851 93.0886 27.6936C94.301 27.2021 94.9367 25.9306 94.4976 24.8493L94.5042 24.8493Z" fill="url(#paint27_linear_404_444)"/>
<path d="M116.877 31.9408C115.802 32.3733 114.577 31.8556 114.138 30.7808C113.705 29.706 114.223 28.4804 115.298 28.0413C116.373 27.6088 117.598 28.1265 118.037 29.2013C118.47 30.2761 117.952 31.5017 116.877 31.9408Z" fill="url(#paint28_radial_404_444)"/>
<path style="mix-blend-mode:color-dodge" opacity="0.4" d="M116.877 31.9408C115.802 32.3733 114.577 31.8556 114.138 30.7808C113.705 29.706 114.223 28.4804 115.298 28.0413C116.373 27.6088 117.598 28.1265 118.037 29.2013C118.47 30.2761 117.952 31.5017 116.877 31.9408Z" fill="url(#paint29_radial_404_444)"/>
<path style="mix-blend-mode:screen" opacity="0.5" d="M118.404 29.3322C118.358 29.2208 118.306 29.1225 118.24 29.0242C118.404 30.2169 117.257 31.5867 115.691 31.4818C114.78 31.4228 114.151 30.9182 113.869 30.2497C113.849 30.5381 113.889 30.8264 114 31.1082C114.439 32.1896 115.776 32.668 116.988 32.1765C118.201 31.685 118.837 30.4135 118.398 29.3322L118.404 29.3322Z" fill="url(#paint30_linear_404_444)"/>
<g style="mix-blend-mode:soft-light">
<ellipse cx="70.7238" cy="10.7957" rx="6.96022" ry="0.526905" transform="rotate(45 70.7238 10.7957)" fill="url(#paint31_radial_404_444)"/>
<ellipse cx="70.6287" cy="10.7957" rx="6.96022" ry="0.526905" transform="rotate(-45 70.6287 10.7957)" fill="url(#paint32_radial_404_444)"/>
</g>
<g style="mix-blend-mode:soft-light">
<ellipse cx="56.5368" cy="60.0879" rx="6.96022" ry="0.526905" transform="rotate(45 56.5368 60.0879)" fill="url(#paint33_radial_404_444)"/>
<ellipse cx="56.4412" cy="60.0879" rx="6.96022" ry="0.526905" transform="rotate(-45 56.4412 60.0879)" fill="url(#paint34_radial_404_444)"/>
</g>
<g style="mix-blend-mode:soft-light">
<ellipse cx="58.3676" cy="60.3364" rx="4.75289" ry="0.359805" transform="rotate(45 58.3676 60.3364)" fill="url(#paint35_radial_404_444)"/>
<ellipse cx="58.3027" cy="60.3365" rx="4.75289" ry="0.359805" transform="rotate(-45 58.3027 60.3365)" fill="url(#paint36_radial_404_444)"/>
</g>
<g style="mix-blend-mode:soft-light">
<ellipse cx="99.1875" cy="46.3799" rx="11.2637" ry="20.3393" transform="rotate(-45 99.1875 46.3799)" fill="url(#paint37_radial_404_444)"/>
</g>
<g style="mix-blend-mode:soft-light">
<ellipse cx="61.9508" cy="45.3383" rx="11.2637" ry="31.2752" transform="rotate(45 61.9508 45.3383)" fill="url(#paint38_radial_404_444)"/>
</g>
<path d="M49.5739 27.4579C50.6487 27.8904 51.8742 27.3727 52.3133 26.2979C52.7459 25.2231 52.2281 23.9975 51.1533 23.5584C50.0785 23.1259 48.853 23.6436 48.4139 24.7184C47.9813 25.7932 48.4991 27.0188 49.5739 27.4579Z" fill="url(#paint39_radial_404_444)"/>
<path style="mix-blend-mode:color-dodge" opacity="0.4" d="M49.5739 27.4579C50.6487 27.8904 51.8742 27.3727 52.3133 26.2979C52.7459 25.2231 52.2281 23.9975 51.1533 23.5584C50.0785 23.1259 48.853 23.6436 48.4139 24.7184C47.9813 25.7932 48.4991 27.0188 49.5739 27.4579Z" fill="url(#paint40_radial_404_444)"/>
<path style="mix-blend-mode:screen" opacity="0.5" d="M52.6799 24.8493C52.6341 24.7379 52.5816 24.6396 52.5161 24.5413C52.6799 25.734 51.533 27.1037 49.9667 26.9989C49.0557 26.9399 48.4266 26.4353 48.1448 25.7668C48.1251 26.0552 48.1644 26.3435 48.2759 26.6253C48.715 27.7067 50.0519 28.1851 51.2643 27.6936C52.4768 27.2021 53.1125 25.9306 52.6734 24.8493L52.6799 24.8493Z" fill="url(#paint41_linear_404_444)"/>
<path d="M24.9279 31.9388C26.0027 32.3714 27.2282 31.8536 27.6673 30.7788C28.0999 29.704 27.5821 28.4785 26.5073 28.0394C25.4325 27.6068 24.207 28.1246 23.7679 29.1994C23.3354 30.2742 23.8531 31.4997 24.9279 31.9388Z" fill="url(#paint42_radial_404_444)"/>
<path style="mix-blend-mode:color-dodge" opacity="0.4" d="M24.9279 31.9388C26.0027 32.3714 27.2282 31.8536 27.6673 30.7788C28.0999 29.704 27.5821 28.4785 26.5073 28.0394C25.4325 27.6068 24.207 28.1246 23.7679 29.1994C23.3354 30.2742 23.8531 31.4997 24.9279 31.9388Z" fill="url(#paint43_radial_404_444)"/>
<path style="mix-blend-mode:screen" opacity="0.5" d="M28.0339 29.3302C27.9881 29.2188 27.9356 29.1205 27.8701 29.0222C28.0339 30.215 26.887 31.5847 25.3207 31.4798C24.4098 31.4209 23.7806 30.9162 23.4988 30.2478C23.4791 30.5361 23.5185 30.8245 23.6299 31.1063C24.069 32.1876 25.4059 32.6661 26.6183 32.1745C27.8308 31.683 28.4665 30.4116 28.0274 29.3302L28.0339 29.3302Z" fill="url(#paint44_linear_404_444)"/>
<defs>
<radialGradient id="paint0_radial_404_444" cx="0" cy="0" r="1" gradientUnits="userSpaceOnUse" gradientTransform="translate(71 44.5) rotate(90) scale(44.5 60)">
<stop stop-color="#F4BD21"/>
<stop offset="0.561755" stop-color="#FFBD00" stop-opacity="0.537203"/>
<stop offset="1" stop-color="#FFBD00" stop-opacity="0"/>
</radialGradient>
<radialGradient id="paint1_radial_404_444" cx="0" cy="0" r="1" gradientUnits="userSpaceOnUse" gradientTransform="translate(70.5 73) rotate(90) scale(6 70.5)">
<stop stop-color="#F4BD21"/>
<stop offset="0.561755" stop-color="#F9D388" stop-opacity="0.537203"/>
<stop offset="1" stop-color="#9B3800" stop-opacity="0"/>
</radialGradient>
<linearGradient id="paint2_linear_404_444" x1="32.303" y1="32.9224" x2="48.4266" y2="37.6968" gradientUnits="userSpaceOnUse">
<stop stop-color="#AC3E24"/>
<stop offset="0.09" stop-color="#9E3820"/>
<stop offset="0.34" stop-color="#7E2C17"/>
<stop offset="0.58" stop-color="#672311"/>
<stop offset="0.8" stop-color="#591D0D"/>
<stop offset="1" stop-color="#551C0C"/>
</linearGradient>
<linearGradient id="paint3_linear_404_444" x1="111.128" y1="35.1629" x2="95.0046" y2="39.9373" gradientUnits="userSpaceOnUse">
<stop stop-color="#AC3E24"/>
<stop offset="0.09" stop-color="#9E3820"/>
<stop offset="0.34" stop-color="#7E2C17"/>
<stop offset="0.58" stop-color="#672311"/>
<stop offset="0.8" stop-color="#591D0D"/>
<stop offset="1" stop-color="#551C0C"/>
</linearGradient>
<linearGradient id="paint4_linear_404_444" x1="87.7923" y1="26.4652" x2="73.7607" y2="35.7322" gradientUnits="userSpaceOnUse">
<stop stop-color="#AC3E24"/>
<stop offset="0.09" stop-color="#9E3820"/>
<stop offset="0.34" stop-color="#7E2C17"/>
<stop offset="0.58" stop-color="#672311"/>
<stop offset="0.8" stop-color="#591D0D"/>
<stop offset="1" stop-color="#551C0C"/>
</linearGradient>
<linearGradient id="paint5_linear_404_444" x1="55.1266" y1="26.4652" x2="69.1582" y2="35.7322" gradientUnits="userSpaceOnUse">
<stop stop-color="#AC3E24"/>
<stop offset="0.09" stop-color="#9E3820"/>
<stop offset="0.34" stop-color="#7E2C17"/>
<stop offset="0.58" stop-color="#672311"/>
<stop offset="0.8" stop-color="#591D0D"/>
<stop offset="1" stop-color="#551C0C"/>
</linearGradient>
<linearGradient id="paint6_linear_404_444" x1="22.7374" y1="34.8085" x2="119.005" y2="34.8821" gradientUnits="userSpaceOnUse">
<stop stop-color="#C0962D"/>
<stop offset="0.04" stop-color="#CAA13A"/>
<stop offset="0.16" stop-color="#E7BF5D"/>
<stop offset="0.25" stop-color="#F8D273"/>
<stop offset="0.31" stop-color="#FFD97B"/>
<stop offset="0.36" stop-color="#F2CA70"/>
<stop offset="0.6" stop-color="#B2833C"/>
<stop offset="0.71" stop-color="#996828"/>
</linearGradient>
<linearGradient id="paint7_linear_404_444" x1="22.7374" y1="34.8085" x2="119.005" y2="34.8821" gradientUnits="userSpaceOnUse">
<stop stop-color="#C0962D"/>
<stop offset="0.04" stop-color="#CAA13A"/>
<stop offset="0.16" stop-color="#E7BF5D"/>
<stop offset="0.25" stop-color="#F8D273"/>
<stop offset="0.31" stop-color="#FFD97B"/>
<stop offset="0.36" stop-color="#F2CA70"/>
<stop offset="0.6" stop-color="#B2833C"/>
<stop offset="0.71" stop-color="#996828"/>
</linearGradient>
<linearGradient id="paint8_linear_404_444" x1="22.7396" y1="42.4395" x2="63.0923" y2="42.4695" gradientUnits="userSpaceOnUse">
<stop stop-color="#E8E8E8"/>
<stop offset="0.520089" stop-color="#FBFBFB"/>
<stop offset="1" stop-color="#E3E3E3"/>
</linearGradient>
<linearGradient id="paint9_linear_404_444" x1="34.6889" y1="66.323" x2="107.895" y2="66.5978" gradientUnits="userSpaceOnUse">
<stop stop-color="#C0962D"/>
<stop offset="0.04" stop-color="#CAA13A"/>
<stop offset="0.16" stop-color="#E7BF5D"/>
<stop offset="0.25" stop-color="#F8D273"/>
<stop offset="0.31" stop-color="#FFD97B"/>
<stop offset="0.36" stop-color="#F2CA70"/>
<stop offset="0.6" stop-color="#B2833C"/>
<stop offset="0.71" stop-color="#996828"/>
</linearGradient>
<linearGradient id="paint10_linear_404_444" x1="98.5526" y1="70.4576" x2="98.1792" y2="62.2422" gradientUnits="userSpaceOnUse">
<stop stop-color="#B0511B"/>
<stop offset="0.441964" stop-color="#8B2B16"/>
<stop offset="1" stop-color="#683428"/>
</linearGradient>
<linearGradient id="paint11_linear_404_444" x1="33.9443" y1="66.3475" x2="63.0878" y2="66.4202" gradientUnits="userSpaceOnUse">
<stop stop-color="#E8E8E8"/>
<stop offset="0.520089" stop-color="#FBFBFB"/>
<stop offset="1" stop-color="#E3E3E3"/>
</linearGradient>
<linearGradient id="paint12_linear_404_444" x1="49.5051" y1="38.0654" x2="105.684" y2="16.1955" gradientUnits="userSpaceOnUse">
<stop stop-color="#AC3E24"/>
<stop offset="0.09" stop-color="#9E3820"/>
<stop offset="0.34" stop-color="#7E2C17"/>
<stop offset="0.58" stop-color="#672311"/>
<stop offset="0.8" stop-color="#591D0D"/>
<stop offset="1" stop-color="#551C0C"/>
</linearGradient>
<linearGradient id="paint13_linear_404_444" x1="21.9926" y1="42.0652" x2="61.8591" y2="42.0929" gradientUnits="userSpaceOnUse">
<stop stop-color="#E8E8E8"/>
<stop offset="0.520089" stop-color="#FBFBFB"/>
<stop offset="1" stop-color="#E3E3E3"/>
</linearGradient>
<radialGradient id="paint14_radial_404_444" cx="0" cy="0" r="1" gradientUnits="userSpaceOnUse" gradientTransform="translate(86.4739 59.9224) rotate(90) scale(13.07 35.8491)">
<stop stop-color="#F4BD21"/>
<stop offset="0.561755" stop-color="#F9DC88" stop-opacity="0.537203"/>
<stop offset="1" stop-color="white" stop-opacity="0"/>
</radialGradient>
<linearGradient id="paint15_linear_404_444" x1="75.0592" y1="0.746857" x2="74.5511" y2="6.90127" gradientUnits="userSpaceOnUse">
<stop stop-color="#C0962D"/>
<stop offset="0.04" stop-color="#CAA13A"/>
<stop offset="0.16" stop-color="#E7BF5D"/>
<stop offset="0.25" stop-color="#FFE092"/>
<stop offset="0.361039" stop-color="#FFD97B"/>
<stop offset="0.506465" stop-color="#F2CA70"/>
<stop offset="0.819689" stop-color="#B2833C"/>
<stop offset="0.967351" stop-color="#996828"/>
</linearGradient>
<linearGradient id="paint16_linear_404_444" x1="108.262" y1="71.9514" x2="107.754" y2="78.1059" gradientUnits="userSpaceOnUse">
<stop stop-color="#C0962D"/>
<stop offset="0.04" stop-color="#CAA13A"/>
<stop offset="0.16" stop-color="#E7BF5D"/>
<stop offset="0.25" stop-color="#FFE092"/>
<stop offset="0.361039" stop-color="#FFD97B"/>
<stop offset="0.506465" stop-color="#F2CA70"/>
<stop offset="0.819689" stop-color="#B2833C"/>
<stop offset="0.967351" stop-color="#996828"/>
</linearGradient>
<linearGradient id="paint17_linear_404_444" x1="54.3122" y1="62.0883" x2="56.7329" y2="51.1989" gradientUnits="userSpaceOnUse">
<stop stop-color="#AC3E24"/>
<stop offset="0.09" stop-color="#9E3820"/>
<stop offset="0.34" stop-color="#7E2C17"/>
<stop offset="0.58" stop-color="#672311"/>
<stop offset="0.8" stop-color="#591D0D"/>
<stop offset="1" stop-color="#551C0C"/>
</linearGradient>
<linearGradient id="paint18_linear_404_444" x1="88.2728" y1="72.5444" x2="85.8521" y2="61.655" gradientUnits="userSpaceOnUse">
<stop stop-color="#AC3E24"/>
<stop offset="0.09" stop-color="#9E3820"/>
<stop offset="0.34" stop-color="#7E2C17"/>
<stop offset="0.58" stop-color="#672311"/>
<stop offset="0.8" stop-color="#591D0D"/>
<stop offset="1" stop-color="#551C0C"/>
</linearGradient>
<linearGradient id="paint19_linear_404_444" x1="38.6165" y1="60.2533" x2="65.86" y2="54.5233" gradientUnits="userSpaceOnUse">
<stop stop-color="#010101"/>
<stop offset="0.04" stop-color="#090909"/>
<stop offset="0.11" stop-color="#202020"/>
<stop offset="0.19" stop-color="#454545"/>
<stop offset="0.29" stop-color="#797979"/>
<stop offset="0.39" stop-color="#BBBBBB"/>
<stop offset="0.49" stop-color="white"/>
<stop offset="0.55" stop-color="#CCCCCC"/>
<stop offset="0.62" stop-color="#8F8F8F"/>
<stop offset="0.69" stop-color="#5C5C5C"/>
<stop offset="0.76" stop-color="#343434"/>
<stop offset="0.82" stop-color="#181818"/>
<stop offset="0.88" stop-color="#070707"/>
<stop offset="0.91" stop-color="#010101"/>
</linearGradient>
<linearGradient id="paint20_linear_404_444" x1="64.0296" y1="70.294" x2="91.2731" y2="64.564" gradientUnits="userSpaceOnUse">
<stop stop-color="#010101"/>
<stop offset="0.04" stop-color="#090909"/>
<stop offset="0.11" stop-color="#202020"/>
<stop offset="0.19" stop-color="#454545"/>
<stop offset="0.29" stop-color="#797979"/>
<stop offset="0.39" stop-color="#BBBBBB"/>
<stop offset="0.49" stop-color="white"/>
<stop offset="0.55" stop-color="#CCCCCC"/>
<stop offset="0.62" stop-color="#8F8F8F"/>
<stop offset="0.69" stop-color="#5C5C5C"/>
<stop offset="0.76" stop-color="#343434"/>
<stop offset="0.82" stop-color="#181818"/>
<stop offset="0.88" stop-color="#070707"/>
<stop offset="0.91" stop-color="#010101"/>
</linearGradient>
<linearGradient id="paint21_linear_404_444" x1="75.4718" y1="23.3568" x2="93.2666" y2="67.4447" gradientUnits="userSpaceOnUse">
<stop stop-color="#010101"/>
<stop offset="0.04" stop-color="#090909"/>
<stop offset="0.11" stop-color="#202020"/>
<stop offset="0.19" stop-color="#454545"/>
<stop offset="0.29" stop-color="#797979"/>
<stop offset="0.39" stop-color="#BBBBBB"/>
<stop offset="0.49" stop-color="white"/>
<stop offset="0.55" stop-color="#CCCCCC"/>
<stop offset="0.62" stop-color="#8F8F8F"/>
<stop offset="0.69" stop-color="#5C5C5C"/>
<stop offset="0.76" stop-color="#343434"/>
<stop offset="0.82" stop-color="#181818"/>
<stop offset="0.88" stop-color="#070707"/>
<stop offset="0.91" stop-color="#010101"/>
</linearGradient>
<radialGradient id="paint22_radial_404_444" cx="0" cy="0" r="1" gradientUnits="userSpaceOnUse" gradientTransform="translate(71.4182 11.4177) rotate(68.02) scale(4.82946)">
<stop stop-color="#FFD97B"/>
<stop offset="0.18" stop-color="#E8C068"/>
<stop offset="0.55" stop-color="#BD9045"/>
<stop offset="0.84" stop-color="#A27330"/>
<stop offset="1" stop-color="#996828"/>
</radialGradient>
<radialGradient id="paint23_radial_404_444" cx="0" cy="0" r="1" gradientUnits="userSpaceOnUse" gradientTransform="translate(71.4914 10.6795) rotate(68.02) scale(3.34829)">
<stop stop-color="white"/>
<stop offset="0.12" stop-color="#CCCCCC"/>
<stop offset="0.28" stop-color="#8F8F8F"/>
<stop offset="0.44" stop-color="#5C5C5C"/>
<stop offset="0.58" stop-color="#343434"/>
<stop offset="0.71" stop-color="#181818"/>
<stop offset="0.83" stop-color="#070707"/>
<stop offset="0.91" stop-color="#010101"/>
</radialGradient>
<linearGradient id="paint24_linear_404_444" x1="75.9697" y1="12.8309" x2="67.1179" y2="15.3688" gradientUnits="userSpaceOnUse">
<stop stop-color="#FF7F0A"/>
<stop offset="1" stop-color="#FFBE82"/>
</linearGradient>
<radialGradient id="paint25_radial_404_444" cx="0" cy="0" r="1" gradientUnits="userSpaceOnUse" gradientTransform="translate(92.3683 24.7895) rotate(68.02) scale(3.03435)">
<stop stop-color="#FFD97B"/>
<stop offset="0.249255" stop-color="#E8C068"/>
<stop offset="0.55" stop-color="#BD9045"/>
<stop offset="0.84" stop-color="#A27330"/>
<stop offset="1" stop-color="#996828"/>
</radialGradient>
<radialGradient id="paint26_radial_404_444" cx="0" cy="0" r="1" gradientUnits="userSpaceOnUse" gradientTransform="translate(92.4143 24.3257) rotate(68.02) scale(2.10373)">
<stop stop-color="white"/>
<stop offset="0.12" stop-color="#CCCCCC"/>
<stop offset="0.28" stop-color="#8F8F8F"/>
<stop offset="0.44" stop-color="#5C5C5C"/>
<stop offset="0.58" stop-color="#343434"/>
<stop offset="0.71" stop-color="#181818"/>
<stop offset="0.83" stop-color="#070707"/>
<stop offset="0.91" stop-color="#010101"/>
</radialGradient>
<linearGradient id="paint27_linear_404_444" x1="95.2288" y1="25.6773" x2="89.6672" y2="27.2719" gradientUnits="userSpaceOnUse">
<stop stop-color="#FF7F0A"/>
<stop offset="1" stop-color="#FFBE82"/>
</linearGradient>
<radialGradient id="paint28_radial_404_444" cx="0" cy="0" r="1" gradientUnits="userSpaceOnUse" gradientTransform="translate(116.269 29.2725) rotate(68.02) scale(3.03435)">
<stop stop-color="#FFD97B"/>
<stop offset="0.18" stop-color="#E8C068"/>
<stop offset="0.55" stop-color="#BD9045"/>
<stop offset="0.84" stop-color="#A27330"/>
<stop offset="1" stop-color="#996828"/>
</radialGradient>
<radialGradient id="paint29_radial_404_444" cx="0" cy="0" r="1" gradientUnits="userSpaceOnUse" gradientTransform="translate(116.315 28.8086) rotate(68.02) scale(2.10373)">
<stop stop-color="white"/>
<stop offset="0.12" stop-color="#CCCCCC"/>
<stop offset="0.28" stop-color="#8F8F8F"/>
<stop offset="0.44" stop-color="#5C5C5C"/>
<stop offset="0.58" stop-color="#343434"/>
<stop offset="0.71" stop-color="#181818"/>
<stop offset="0.83" stop-color="#070707"/>
<stop offset="0.91" stop-color="#010101"/>
</radialGradient>
<linearGradient id="paint30_linear_404_444" x1="119.129" y1="30.1602" x2="113.567" y2="31.7548" gradientUnits="userSpaceOnUse">
<stop stop-color="#FF7F0A"/>
<stop offset="1" stop-color="#FFBE82"/>
</linearGradient>
<radialGradient id="paint31_radial_404_444" cx="0" cy="0" r="1" gradientUnits="userSpaceOnUse" gradientTransform="translate(70.7238 10.7957) rotate(90) scale(0.526905 6.96022)">
<stop stop-color="#F4BD21"/>
<stop offset="0.561755" stop-color="#F9DC88" stop-opacity="0.537203"/>
<stop offset="1" stop-color="white" stop-opacity="0"/>
</radialGradient>
<radialGradient id="paint32_radial_404_444" cx="0" cy="0" r="1" gradientUnits="userSpaceOnUse" gradientTransform="translate(70.6287 10.7957) rotate(90) scale(0.526905 6.96022)">
<stop stop-color="#F4BD21"/>
<stop offset="0.561755" stop-color="#F9DC88" stop-opacity="0.537203"/>
<stop offset="1" stop-color="white" stop-opacity="0"/>
</radialGradient>
<radialGradient id="paint33_radial_404_444" cx="0" cy="0" r="1" gradientUnits="userSpaceOnUse" gradientTransform="translate(56.5368 60.0879) rotate(90) scale(0.526905 6.96022)">
<stop stop-color="#F4BD21"/>
<stop offset="0.561755" stop-color="#F9DC88" stop-opacity="0.537203"/>
<stop offset="1" stop-color="white" stop-opacity="0"/>
</radialGradient>
<radialGradient id="paint34_radial_404_444" cx="0" cy="0" r="1" gradientUnits="userSpaceOnUse" gradientTransform="translate(56.4412 60.0879) rotate(90) scale(0.526905 6.96022)">
<stop stop-color="#F4BD21"/>
<stop offset="0.561755" stop-color="#F9DC88" stop-opacity="0.537203"/>
<stop offset="1" stop-color="white" stop-opacity="0"/>
</radialGradient>
<radialGradient id="paint35_radial_404_444" cx="0" cy="0" r="1" gradientUnits="userSpaceOnUse" gradientTransform="translate(58.3676 60.3364) rotate(90) scale(0.359805 4.75289)">
<stop stop-color="#F4BD21"/>
<stop offset="0.561755" stop-color="#F9DC88" stop-opacity="0.537203"/>
<stop offset="1" stop-color="white" stop-opacity="0"/>
</radialGradient>
<radialGradient id="paint36_radial_404_444" cx="0" cy="0" r="1" gradientUnits="userSpaceOnUse" gradientTransform="translate(58.3027 60.3365) rotate(90) scale(0.359805 4.75289)">
<stop stop-color="#F4BD21"/>
<stop offset="0.561755" stop-color="#F9DC88" stop-opacity="0.537203"/>
<stop offset="1" stop-color="white" stop-opacity="0"/>
</radialGradient>
<radialGradient id="paint37_radial_404_444" cx="0" cy="0" r="1" gradientUnits="userSpaceOnUse" gradientTransform="translate(99.1875 46.3799) rotate(90) scale(20.3393 11.2637)">
<stop stop-color="#F4BD21"/>
<stop offset="0.561755" stop-color="#F9DC88" stop-opacity="0.537203"/>
<stop offset="1" stop-color="white" stop-opacity="0"/>
</radialGradient>
<radialGradient id="paint38_radial_404_444" cx="0" cy="0" r="1" gradientUnits="userSpaceOnUse" gradientTransform="translate(61.9508 45.3383) rotate(90) scale(31.2752 11.2637)">
<stop stop-color="#F4BD21"/>
<stop offset="0.561755" stop-color="#F9DC88" stop-opacity="0.537203"/>
<stop offset="1" stop-color="white" stop-opacity="0"/>
</radialGradient>
<radialGradient id="paint39_radial_404_444" cx="0" cy="0" r="1" gradientUnits="userSpaceOnUse" gradientTransform="translate(50.1825 24.7895) rotate(111.98) scale(3.03435)">
<stop stop-color="#FFD97B"/>
<stop offset="0.18" stop-color="#E8C068"/>
<stop offset="0.55" stop-color="#BD9045"/>
<stop offset="0.84" stop-color="#A27330"/>
<stop offset="1" stop-color="#996828"/>
</radialGradient>
<radialGradient id="paint40_radial_404_444" cx="0" cy="0" r="1" gradientUnits="userSpaceOnUse" gradientTransform="translate(50.1365 24.3257) rotate(111.98) scale(2.10373)">
<stop stop-color="white"/>
<stop offset="0.12" stop-color="#CCCCCC"/>
<stop offset="0.28" stop-color="#8F8F8F"/>
<stop offset="0.44" stop-color="#5C5C5C"/>
<stop offset="0.58" stop-color="#343434"/>
<stop offset="0.71" stop-color="#181818"/>
<stop offset="0.83" stop-color="#070707"/>
<stop offset="0.91" stop-color="#010101"/>
</radialGradient>
<linearGradient id="paint41_linear_404_444" x1="53.4046" y1="25.6773" x2="47.843" y2="27.2719" gradientUnits="userSpaceOnUse">
<stop stop-color="#FF7F0A"/>
<stop offset="1" stop-color="#FFBE82"/>
</linearGradient>
<radialGradient id="paint42_radial_404_444" cx="0" cy="0" r="1" gradientUnits="userSpaceOnUse" gradientTransform="translate(25.5365 29.2705) rotate(111.98) scale(3.03435)">
<stop stop-color="#FFD97B"/>
<stop offset="0.18" stop-color="#E8C068"/>
<stop offset="0.55" stop-color="#BD9045"/>
<stop offset="0.84" stop-color="#A27330"/>
<stop offset="1" stop-color="#996828"/>
</radialGradient>
<radialGradient id="paint43_radial_404_444" cx="0" cy="0" r="1" gradientUnits="userSpaceOnUse" gradientTransform="translate(25.4905 28.8067) rotate(111.98) scale(2.10373)">
<stop stop-color="white"/>
<stop offset="0.12" stop-color="#CCCCCC"/>
<stop offset="0.28" stop-color="#8F8F8F"/>
<stop offset="0.44" stop-color="#5C5C5C"/>
<stop offset="0.58" stop-color="#343434"/>
<stop offset="0.71" stop-color="#181818"/>
<stop offset="0.83" stop-color="#070707"/>
<stop offset="0.91" stop-color="#010101"/>
</radialGradient>
<linearGradient id="paint44_linear_404_444" x1="28.7586" y1="30.1583" x2="23.197" y2="31.7529" gradientUnits="userSpaceOnUse">
<stop stop-color="#FF7F0A"/>
<stop offset="1" stop-color="#FFBE82"/>
</linearGradient>
</defs>
</svg>
